<?xml version="1.0" encoding="UTF-8" standalone="no"?><!DOCTYPE svg PUBLIC "-//W3C//DTD SVG 1.1//EN" "http://www.w3.org/Graphics/SVG/1.1/DTD/svg11.dtd"><svg width="100%" height="100%" viewBox="0 0 41 67" version="1.1" xmlns="http://www.w3.org/2000/svg" xmlns:xlink="http://www.w3.org/1999/xlink" xml:space="preserve" style="fill-rule:evenodd;clip-rule:evenodd;stroke-miterlimit:1.41421;"><g><path d="M16.36,31.128l2.634,0.009l2.712,0.015l2.706,0.019l2.617,0.022l4.632,0.046l3.272,0.037l1.24,0.015l-0.059,4.864l-1.238,-0.015l-3.266,-0.037l-4.625,-0.045l-2.611,-0.022l-2.699,-0.019l-2.703,-0.015l-2.621,-0.009l-2.456,-0.001l-2.207,0.008l-0.979,0.007l-0.885,0.011l-0.776,0.014l-0.654,0.016l-0.514,0.019l-0.358,0.021l-0.075,0.007l0.015,-0.002l0.164,-0.033l0.382,-0.129l0.217,-0.133l-2.539,-4.15l0.245,-0.15l0.43,-0.146l0.321,-0.064l0.25,-0.031l0.235,-0.021l0.48,-0.028l0.594,-0.022l0.702,-0.018l0.809,-0.014l0.908,-0.011l1,-0.008l2.227,-0.008l2.473,0.001Z" style="fill:#0b0b0b;"/><path d="M6.95,9.235l0,39.39c0,0 -0.842,11.254 12.975,11.254l16.219,0" style="fill:none;stroke:#0b0b0b;stroke-width:4.59px;"/><ellipse cx="6.967" cy="6.766" rx="6.967" ry="6.766"/><ellipse cx="33.635" cy="33.434" rx="6.967" ry="6.766"/><ellipse cx="33.635" cy="60.191" rx="6.967" ry="6.766"/></g></svg>